<svg width="16" height="16" viewBox="0 0 16 16" fill="none" xmlns="http://www.w3.org/2000/svg">
<mask id="mask0_1_539" style="mask-type:luminance" maskUnits="userSpaceOnUse" x="0" y="0" width="17" height="16">
<path d="M16.0091 0.179993H0.369141V15.82H16.0091V0.179993Z" fill="white"/>
</mask>
<g mask="url(#mask0_1_539)">
<path d="M8.18915 15.4382C12.2971 15.4382 15.6273 12.108 15.6273 8C15.6273 3.89201 12.2971 0.561829 8.18915 0.561829C4.08116 0.561829 0.750977 3.89201 0.750977 8C0.750977 12.108 4.08116 15.4382 8.18915 15.4382Z" stroke="#00213E" stroke-width="0.763673"/>
<path d="M11.7756 9.94315C11.1764 9.43072 10.5684 9.1203 9.9766 9.63198L9.62324 9.94123C9.36472 10.1657 8.884 11.2146 7.02544 9.07658C5.16726 6.9413 6.27305 6.60884 6.53196 6.38629L6.88727 6.07665C7.47594 5.56384 7.25378 4.91826 6.82923 4.25371L6.57298 3.85119C6.14647 3.18819 5.68203 2.75277 5.0918 3.26482L4.77289 3.54349C4.51202 3.73353 3.78284 4.35124 3.60596 5.52474C3.39309 6.93277 4.06461 8.54518 5.60309 10.3143C7.13961 12.0843 8.64403 12.9733 10.0691 12.9578C11.2535 12.945 11.9687 12.3095 12.1924 12.0784L12.5125 11.7994C13.1012 11.2877 12.7354 10.7668 12.1359 10.2532L11.7756 9.94315Z" fill="#00213E"/>
</g>
</svg>
