<svg width="17" height="16" viewBox="0 0 17 16" fill="none" xmlns="http://www.w3.org/2000/svg">
<path fill-rule="evenodd" clip-rule="evenodd" d="M10.91 10.62C11.4995 10.0707 11.9723 9.40831 12.3002 8.67232C12.6282 7.93632 12.8045 7.14182 12.8187 6.33619C12.8329 5.53057 12.6847 4.73034 12.383 3.98323C12.0812 3.23613 11.632 2.55746 11.0623 1.98771C10.4925 1.41796 9.81386 0.9688 9.06676 0.667031C8.31965 0.365263 7.51942 0.217066 6.7138 0.23128C5.90817 0.245495 5.11367 0.421829 4.37767 0.749765C3.64168 1.0777 2.97927 1.55052 2.42998 2.14001C1.37014 3.27741 0.79315 4.78178 0.820576 6.33619C0.848002 7.8906 1.4777 9.37368 2.577 10.473C3.67631 11.5723 5.15939 12.202 6.7138 12.2294C8.2682 12.2568 9.77258 11.6799 10.91 10.62ZM9.14998 8.85001C9.475 8.52499 9.73282 8.13913 9.90872 7.71447C10.0846 7.28981 10.1752 6.83466 10.1752 6.37501C10.1752 5.91536 10.0846 5.46021 9.90872 5.03555C9.73282 4.61089 9.475 4.22503 9.14998 3.90001C8.82495 3.57499 8.4391 3.31717 8.01444 3.14127C7.58978 2.96537 7.13463 2.87483 6.67498 2.87483C6.21533 2.87483 5.76018 2.96537 5.33552 3.14127C4.91085 3.31717 4.525 3.57499 4.19998 3.90001C3.54356 4.55642 3.1748 5.44671 3.1748 6.37501C3.1748 7.30332 3.54356 8.1936 4.19998 8.85001C4.85639 9.50642 5.74667 9.87519 6.67498 9.87519C7.60328 9.87519 8.49357 9.50642 9.14998 8.85001Z" fill="#666666"/>
<path fill-rule="evenodd" clip-rule="evenodd" d="M9.14996 10.97L11.27 8.84998L16.22 13.8L14.1 15.92L9.14996 10.97Z" fill="#666666"/>
</svg>
