<svg width="20" height="16" viewBox="0 0 20 16" fill="none" xmlns="http://www.w3.org/2000/svg">
<path fill-rule="evenodd" clip-rule="evenodd" d="M17 9.5L20 11L10 16L0 11L3 9.5L4.5 10.25L3 11L10 14.5L17 11L15.5 10.25L17 9.5Z" fill="#333333"/>
<path fill-rule="evenodd" clip-rule="evenodd" d="M17 6.5L20 8L10 13L0 8L3 6.5L4.5 7.25L3 8L10 11.5L17 8L15.5 7.25L17 6.5Z" fill="#4C4C4C"/>
<path fill-rule="evenodd" clip-rule="evenodd" d="M10 10L20 5L10 0L0 5L10 10ZM10 8.5L17 5L10 1.5L3 5L10 8.5Z" fill="#666666"/>
</svg>
