<svg width="16" height="16" viewBox="0 0 16 16" fill="none" xmlns="http://www.w3.org/2000/svg">
<path fill-rule="evenodd" clip-rule="evenodd" d="M0.170044 7.2C0.370044 8.24 1.27004 8.84 3.11004 8.84C4.11004 8.25 4.11004 2.78 6.91004 1.62C7.31004 1.45 7.69004 1.32 8.08004 1.2C8.24865 1.15294 8.41544 1.09957 8.58004 1.04C8.58004 1.04 7.97004 1 7.28004 1H7.10004C6.48004 1 6.30004 1.08 5.65004 1.15C4.4889 1.30104 3.39037 1.76388 2.47124 2.48933C1.5521 3.21477 0.846712 4.17571 0.430044 5.27C0.310044 5.63 0.230044 5.97 0.180044 6.27V7.19L0.170044 7.2Z" fill="#999898"/>
<path fill-rule="evenodd" clip-rule="evenodd" d="M9.53006 15.0299C11.3173 14.8454 12.9655 13.9816 14.1343 12.6169C15.303 11.2523 15.9032 9.49091 15.8108 7.69652C15.7184 5.90213 14.9405 4.21173 13.6377 2.97433C12.335 1.73692 10.6068 1.047 8.81006 1.047C7.01329 1.047 5.28513 1.73692 3.98237 2.97433C2.67961 4.21173 1.90173 5.90213 1.80933 7.69652C1.71694 9.49091 2.31708 11.2523 3.48586 12.6169C4.65463 13.9816 6.3028 14.8454 8.09006 15.0299H9.53006Z" fill="#BFBFBF"/>
<path fill-rule="evenodd" clip-rule="evenodd" d="M7.9301 0.969971L8.8301 0.989971C9.79422 1.001 10.7459 1.2094 11.6264 1.60232C12.5068 1.99523 13.2975 2.56434 13.9496 3.27454C14.6017 3.98475 15.1015 4.821 15.418 5.73174C15.7346 6.64249 15.8612 7.60841 15.7901 8.56997C14.7701 8.48997 13.3601 7.14997 13.0301 6.06997C12.6222 4.64076 11.765 3.38086 10.5853 2.47675C9.40563 1.57264 7.96621 1.07237 6.4801 1.04997C7.0801 0.989971 7.5301 0.969971 7.9301 0.969971Z" fill="#242726"/>
</svg>
