<svg width="27" height="27" viewBox="0 0 27 27" fill="none" xmlns="http://www.w3.org/2000/svg">
<g clip-path="url(#clip0_1_518)">
<path d="M12.9352 26.7413C5.81977 26.7413 0.0300293 20.9244 0.0300293 13.7756C0.0300293 6.62688 5.81977 0.810059 12.9352 0.810059C20.0507 0.810059 25.8404 6.62688 25.8404 13.7756C25.8404 20.9244 20.0507 26.7413 12.9352 26.7413ZM12.9352 2.65569C6.83318 2.65569 1.86707 7.64506 1.86707 13.7756C1.86707 19.9063 6.83318 24.8956 12.9352 24.8956C19.0372 24.8956 24.0034 19.9063 24.0034 13.7756C24.0034 7.64506 19.0372 2.65569 12.9352 2.65569Z" fill="white"/>
<path fill-rule="evenodd" clip-rule="evenodd" d="M6.37376 13.6494C9.8672 12.1206 12.1972 11.1116 13.3637 10.6256C16.6918 9.23522 17.3837 8.99222 17.8338 8.98609C17.9318 8.98299 18.1553 9.0076 18.2992 9.12757C18.4217 9.226 18.4553 9.36136 18.4707 9.45362C18.4859 9.54592 18.5074 9.76123 18.4921 9.92735C18.3114 11.8314 17.5307 16.4517 17.1327 18.5865C16.9643 19.4877 16.6336 19.7923 16.3121 19.8199C15.6171 19.8845 15.0874 19.3585 14.4139 18.9125C13.3575 18.2173 12.7636 17.7867 11.7379 17.1069C10.553 16.3225 11.3215 15.8918 11.9951 15.1874C12.1727 15.0029 15.2375 12.2006 15.2987 11.9453C15.3048 11.9145 15.314 11.7945 15.2436 11.733C15.1732 11.6715 15.0691 11.693 14.9956 11.7084C14.8884 11.733 13.2045 12.8527 9.94068 15.0644C9.46305 15.3935 9.02826 15.5565 8.63944 15.5473C8.21078 15.5381 7.3872 15.3043 6.77484 15.1044C6.02471 14.8583 5.42767 14.7291 5.47973 14.3138C5.51034 14.0954 5.80733 13.8739 6.37376 13.6494Z" fill="white"/>
</g>
<defs>
<clipPath id="clip0_1_518">
<rect width="26" height="26" fill="white" transform="translate(0.0300293 0.810059)"/>
</clipPath>
</defs>
</svg>
