<svg width="27" height="27" viewBox="0 0 27 27" fill="none" xmlns="http://www.w3.org/2000/svg">
<g clip-path="url(#clip0_1_523)">
<path d="M0.825073 26.6322C0.979384 26.1732 1.12159 25.7446 1.26683 25.316C1.85079 23.5711 2.43475 21.8232 3.01266 20.0752C3.04292 19.981 3.03384 19.8412 2.98543 19.7591C2.08982 18.2057 1.52401 16.5459 1.3576 14.7585C0.973333 10.6912 2.22295 7.20138 5.11856 4.34392C7.14879 2.34063 9.61778 1.2098 12.4499 0.887571C18.1926 0.237037 23.7388 3.73897 25.6087 9.22289C26.6979 12.4148 26.6011 15.5884 25.1699 18.6435C23.3575 22.5163 20.3137 24.9117 16.1321 25.7568C13.2547 26.3374 10.4983 25.8723 7.89312 24.5074C7.79934 24.4587 7.65713 24.4466 7.55726 24.48C5.39085 25.1701 3.22749 25.8692 1.0641 26.5654C0.997538 26.5866 0.927946 26.6049 0.825073 26.6322ZM4.03234 23.4586C4.1594 23.4191 4.23807 23.3978 4.31372 23.3735C5.49678 22.9966 6.67981 22.6196 7.85984 22.2366C7.99296 22.194 8.09586 22.2031 8.21687 22.2791C10.3712 23.6228 12.7101 24.1639 15.2244 23.8021C18.4801 23.334 20.9884 21.659 22.7191 18.8654C24.123 16.5976 24.5587 14.111 24.0746 11.4846C22.7524 4.31045 14.704 0.623102 8.48617 4.37429C5.2184 6.34414 3.50585 9.32322 3.35457 13.1474C3.2638 15.3756 3.8871 17.4336 5.14881 19.2818C5.28798 19.4825 5.30615 19.6497 5.22748 19.8746C4.8432 20.9811 4.47709 22.0937 4.10495 23.2033C4.08376 23.2701 4.06562 23.3401 4.03234 23.4586Z" fill="white"/>
<path d="M17.0007 19.6976C16.7919 19.649 16.4439 19.5942 16.1141 19.4818C14.9371 19.0835 13.7722 18.658 12.7253 17.9618C11.5241 17.1624 10.5317 16.144 9.66935 14.9949C9.02183 14.1346 8.41065 13.25 7.97798 12.256C7.55739 11.2924 7.40307 10.3014 7.70565 9.26781C7.91445 8.56257 8.32895 7.99715 8.8766 7.52294C9.12773 7.30711 9.42728 7.22198 9.76314 7.26453C9.93559 7.28582 10.1141 7.30405 10.2866 7.30102C10.5619 7.2919 10.7344 7.43172 10.8342 7.67187C10.9583 7.97283 11.0672 8.27681 11.1822 8.5808C11.397 9.15837 11.6058 9.73596 11.8267 10.3135C11.9054 10.5172 11.9174 10.7178 11.7843 10.8942C11.5241 11.2377 11.2639 11.5812 10.9765 11.9034C10.7041 12.2104 10.6708 12.3107 10.8675 12.6725C11.7904 14.3626 13.0914 15.6515 14.8403 16.4753C15.4999 16.7854 15.5059 16.7945 15.984 16.2504C16.2654 15.9312 16.5407 15.6059 16.8131 15.2776C16.9916 15.0618 17.1368 15.0071 17.4 15.1165C17.6844 15.2351 17.9628 15.378 18.2382 15.5208C18.8221 15.8309 19.403 16.1501 19.987 16.4571C20.2109 16.5757 20.3108 16.7337 20.2926 16.9921C20.2261 17.901 19.9174 18.6489 19.0793 19.1292C18.4711 19.4787 17.8297 19.6551 17.0007 19.6976Z" fill="white"/>
</g>
<defs>
<clipPath id="clip0_1_523">
<rect width="26" height="26" fill="white" transform="translate(0.52002 0.810059)"/>
</clipPath>
</defs>
</svg>
