<svg width="26" height="27" viewBox="0 0 26 27" fill="none" xmlns="http://www.w3.org/2000/svg">
<g clip-path="url(#clip0_1_528)">
<path d="M12.9168 26.7598C5.80132 26.7598 0.0115967 20.943 0.0115967 13.7942C0.0115967 6.64545 5.80132 0.828613 12.9168 0.828613C20.0322 0.828613 25.822 6.64545 25.822 13.7942C25.822 20.943 20.0322 26.7598 12.9168 26.7598ZM12.9168 2.67425C6.81476 2.67425 1.84863 7.66363 1.84863 13.7942C1.84863 19.9248 6.81476 24.9142 12.9168 24.9142C19.0188 24.9142 23.9849 19.9248 23.9849 13.7942C23.9849 7.66363 19.0188 2.67425 12.9168 2.67425Z" fill="white"/>
<path d="M18.1427 15.5175C17.8872 15.1932 17.9603 15.0489 18.1427 14.759C18.146 14.7557 20.2556 11.8263 20.473 10.8329L20.4743 10.8322C20.5823 10.4702 20.4743 10.2041 19.952 10.2041H18.2238C17.7838 10.2041 17.5809 10.4324 17.4722 10.6879C17.4722 10.6879 16.5923 12.8045 15.3475 14.1766C14.9457 14.573 14.76 14.7001 14.5407 14.7001C14.4326 14.7001 14.2647 14.573 14.2647 14.211V10.8322C14.2647 10.398 14.1415 10.2041 13.7773 10.2041H11.0598C10.7838 10.2041 10.6198 10.4066 10.6198 10.5952C10.6198 11.0069 11.2422 11.1016 11.3068 12.2598V14.7729C11.3068 15.3236 11.2073 15.4248 10.9867 15.4248C10.3991 15.4248 8.9732 13.2996 8.12817 10.8673C7.95759 10.3954 7.79098 10.2048 7.34771 10.2048H5.61877C5.12545 10.2048 5.026 10.4331 5.026 10.6886C5.026 11.14 5.61351 13.3843 7.75804 16.3494C9.18727 18.3734 11.2001 19.4701 13.0311 19.4701C14.1316 19.4701 14.266 19.2265 14.266 18.8076C14.266 16.8736 14.1665 16.6909 14.7178 16.6909C14.9734 16.6909 15.4133 16.818 16.4408 17.7943C17.6152 18.9519 17.8082 19.4701 18.4655 19.4701H20.1937C20.6864 19.4701 20.936 19.2265 20.7924 18.746C20.4637 17.7354 18.2429 15.6565 18.1427 15.5175Z" fill="white"/>
</g>
<defs>
<clipPath id="clip0_1_528">
<rect width="26" height="26" fill="white" transform="translate(0 0.810059)"/>
</clipPath>
</defs>
</svg>
