<svg width="14" height="18" viewBox="0 0 14 18" fill="none" xmlns="http://www.w3.org/2000/svg">
<g clip-path="url(#clip0_1_478)">
<path d="M7.00002 1.82313e-08C5.61548 -9.98853e-05 4.262 0.410389 3.11076 1.17955C1.95953 1.94871 1.06224 3.042 0.532386 4.32115C0.00253135 5.60029 -0.136093 7.00784 0.134046 8.36577C0.404184 9.72371 1.07095 10.971 2.05002 11.95C3.32002 13.22 6.30002 15.05 6.47002 16.98C6.50002 17.26 6.71002 17.5 7.00002 17.5C7.29002 17.5 7.50002 17.26 7.53002 16.98C7.70002 15.05 10.68 13.22 11.95 11.95C12.9291 10.971 13.5959 9.72371 13.866 8.36577C14.1361 7.00784 13.9975 5.60029 13.4677 4.32115C12.9378 3.042 12.0405 1.94871 10.8893 1.17955C9.73804 0.410389 8.38456 -9.98853e-05 7.00002 1.82313e-08Z" fill="#FF4433"/>
<path d="M6.99999 9.45005C7.32173 9.45005 7.64031 9.38668 7.93756 9.26355C8.23481 9.14043 8.5049 8.95996 8.7324 8.73246C8.9599 8.50496 9.14037 8.23487 9.26349 7.93762C9.38662 7.64038 9.44999 7.32179 9.44999 7.00005C9.44999 6.67831 9.38662 6.35972 9.26349 6.06247C9.14037 5.76523 8.9599 5.49514 8.7324 5.26764C8.5049 5.04013 8.23481 4.85967 7.93756 4.73654C7.64031 4.61342 7.32173 4.55005 6.99999 4.55005C6.35021 4.55005 5.72704 4.80817 5.26758 5.26764C4.80811 5.7271 4.54999 6.35027 4.54999 7.00005C4.54999 7.64983 4.80811 8.273 5.26758 8.73246C5.72704 9.19192 6.35021 9.45005 6.99999 9.45005Z" fill="white"/>
</g>
<defs>
<clipPath id="clip0_1_478">
<rect width="14" height="18" fill="white"/>
</clipPath>
</defs>
</svg>
