<svg width="137" height="94" viewBox="0 0 137 94" fill="none" xmlns="http://www.w3.org/2000/svg">
<g clip-path="url(#clip0_1_504)">
<path d="M24.551 18.8888H29.5137V31.8279C29.8604 31.5169 30.0757 31.3375 30.2671 31.1343C34.2971 27.1042 38.339 23.0862 42.345 19.0323C42.9548 18.4224 43.5527 18.267 44.3778 18.4464V41.4783H39.4392V28.4675C39.0805 28.8143 38.8531 29.0176 38.6378 29.2329C34.6557 33.2388 30.6618 37.2211 26.7035 41.2509C26.0697 41.8968 25.4598 42.1719 24.5391 41.9445V18.8888H24.551Z" fill="white"/>
<path d="M0.0478345 18.8774H5.09426C5.09426 19.2122 5.09426 19.5232 5.09426 19.8341C5.13013 21.9029 5.04643 23.9955 5.23775 26.0524C5.46499 28.3962 7.03151 29.7954 9.38731 29.8672C10.7027 29.903 12.0301 29.6638 13.3455 29.5323C13.8836 29.4845 14.087 29.2094 14.075 28.6354C14.0511 25.7056 14.063 22.7758 14.063 19.846V18.9013H19.0855V41.4548H14.075V34.3515C12.0899 34.4472 10.1885 34.6504 8.28714 34.6027C3.82667 34.4949 0.406584 31.2304 0.131543 26.7938C-0.0358744 24.2706 0.035875 21.7355 0 19.2122C0 19.1166 0.0358741 19.009 0.0597908 18.8535" fill="white"/>
<path d="M59.4934 36.2163C59.4934 16.4492 75.5176 0.437012 95.273 0.437012C115.028 0.437012 131.052 16.4612 131.052 36.2163C131.052 55.9717 115.028 71.9959 95.273 71.9959C75.5176 71.9959 59.4934 55.9717 59.4934 36.2163Z" fill="#E50040"/>
<path d="M94.615 33.7046L86.5431 32.2938L85.7299 36.9573L89.7599 37.6512L86.6148 40.2102L89.6044 43.8813L95.9305 38.7392L135.417 45.6393L136.23 40.9755L100.786 34.7812L129.342 11.534L126.352 7.86279L94.615 33.7046Z" fill="white"/>
<path d="M60.4737 37.3645C56.4315 37.3645 53.3702 34.2792 53.3583 30.1893C53.3583 26.1115 56.4315 22.9904 60.4497 22.9904C64.4797 22.9904 67.5529 26.1355 67.5049 30.2133C67.4573 34.3268 64.4676 37.3645 60.4737 37.3645ZM60.4376 18.3625C53.5976 18.3984 48.4194 23.4448 48.3717 30.1295C48.3237 36.8024 53.6095 42.0161 60.4017 42.028C67.2778 42.028 72.4199 36.9697 72.432 30.1893C72.432 23.385 67.3018 18.3266 60.4257 18.3625" fill="white"/>
<path d="M31.3545 47.362H36.3174V60.3009C36.6642 59.99 36.8792 59.8108 37.0705 59.6073C41.1006 55.5773 45.1425 51.5594 49.1485 47.5057C49.7586 46.8956 50.3565 46.7401 51.1816 46.9196V69.9513H46.2427V56.9408C45.884 57.2876 45.6569 57.4907 45.4416 57.706C41.4595 61.7121 37.4653 65.6941 33.5069 69.7242C32.8732 70.3698 32.2634 70.6449 31.3427 70.4178V47.362H31.3545Z" fill="white"/>
<path d="M6.85227 47.3619H11.8987C11.8987 47.6968 11.8987 48.0075 11.8987 48.3184C11.9346 50.3874 11.8509 52.48 12.0422 54.5368C12.2694 56.8808 13.836 58.2798 16.1918 58.3515C17.5072 58.3873 18.8346 58.1483 20.15 58.0168C20.6881 57.9689 20.8914 57.694 20.8794 57.1198C20.8555 54.19 20.8675 51.2601 20.8675 48.3306V47.3859H25.89V69.9393H20.8794V62.8358C18.8944 62.9315 16.993 63.1349 15.0916 63.087C10.6311 62.9795 7.21103 59.7147 6.93599 55.2783C6.76858 52.7551 6.84034 50.22 6.80444 47.6968C6.80444 47.6012 6.84034 47.4934 6.86424 47.3379" fill="white"/>
<path d="M67.5526 65.8378C63.5107 65.8378 60.4494 62.7525 60.4372 58.663C60.4372 54.585 63.5107 51.4638 67.5286 51.4638C71.5587 51.4638 74.6318 54.6089 74.5841 58.6867C74.5362 62.8005 71.5465 65.8378 67.5526 65.8378ZM67.5168 46.8361C60.6765 46.872 55.4986 51.9184 55.4506 58.6031C55.403 65.2757 60.6884 70.4898 67.4809 70.5016C74.357 70.5016 79.4991 65.4434 79.5109 58.663C79.5109 51.8586 74.3807 46.8 67.5046 46.8361" fill="white"/>
<path d="M4.92493 79.6125H12.8324V88.6887H10.467V81.7439H7.29029V88.6887H4.92493V79.6125ZM19.9014 87.9323H16.6422L16.3121 88.6887H13.768L17.8936 79.4473H18.65L22.7756 88.6887H20.2315L19.9014 87.9323ZM18.2787 83.9304L17.481 86.0346H19.0625L18.2787 83.9304ZM23.7132 79.6125H27.275C27.9443 79.6125 28.5448 79.7408 29.0766 79.9975C29.6083 80.2543 30.0254 80.6209 30.328 81.0977C30.6304 81.565 30.7817 82.1106 30.7817 82.734C30.7817 83.3485 30.626 83.894 30.3141 84.3705C30.0117 84.8473 29.5946 85.2187 29.0628 85.4846C28.531 85.7411 27.9351 85.8696 27.275 85.8696H26.0786V88.6887H23.7132V79.6125ZM27.2888 83.8066C27.6188 83.8066 27.8801 83.7104 28.0726 83.5179C28.2743 83.3162 28.3752 83.055 28.3752 82.734C28.3752 82.4132 28.2743 82.1565 28.0726 81.964C27.8801 81.7715 27.6188 81.6752 27.2888 81.6752H26.0786V83.8066H27.2888ZM40.1114 79.4473V88.6887H37.7461V83.9719L32.8228 88.8537H32.0664V79.6125H34.4318V84.2743L39.355 79.4473H40.1114ZM47.7412 88.6887L44.2892 84.1644V88.6887H41.9239V79.6125H44.2892V83.7243L47.2875 79.6125H50.0378L46.9161 83.9304L50.5466 88.6887H47.7412ZM60.7275 79.4473V88.6887H58.3621V84.8793L56.478 87.0797H55.7216L53.8514 84.8932V88.6887H51.486V79.4473H52.2424L56.1066 84.1644L59.9711 79.4473H60.7275ZM67.7922 87.9323H64.5327L64.2028 88.6887H61.6586L65.7843 79.4473H66.5406L70.6663 88.6887H68.1221L67.7922 87.9323ZM66.1693 83.9304L65.3717 86.0346H66.9532L66.1693 83.9304ZM76.5683 88.6887L74.9733 86.1448L73.3915 88.6887H70.7238L73.6806 84.0818L70.8887 79.6125H73.5568L74.9733 82.0327L76.3895 79.6125H79.0575L76.3071 84.0818L79.2364 88.6887H76.5683ZM80.1719 79.6125H86.4705V81.7439H82.5373V82.9955H85.3427V84.9758H82.5373V86.5573H86.6354V88.6887H80.1719V79.6125ZM88.1091 79.6125H91.6709C92.3402 79.6125 92.9405 79.7408 93.4724 79.9975C94.004 80.2543 94.4213 80.6209 94.724 81.0977C95.0263 81.565 95.1777 82.1106 95.1777 82.734C95.1777 83.3485 95.0219 83.894 94.71 84.3705C94.4077 84.8473 93.9904 85.2187 93.4588 85.4846C92.9269 85.7411 92.331 85.8696 91.6709 85.8696H90.4745V88.6887H88.1091V79.6125ZM91.6845 83.8066C92.0148 83.8066 92.276 83.7104 92.4685 83.5179C92.6701 83.3162 92.7711 83.055 92.7711 82.734C92.7711 82.4132 92.6701 82.1565 92.4685 81.964C92.276 81.7715 92.0148 81.6752 91.6845 81.6752H90.4745V83.8066H91.6845ZM100.891 88.8537C99.9922 88.8537 99.1671 88.6475 98.4152 88.235C97.6724 87.8225 97.0813 87.2586 96.6412 86.5434C96.2103 85.8285 95.9948 85.0306 95.9948 84.1505C95.9948 83.2795 96.2103 82.4867 96.6412 81.7715C97.0813 81.0471 97.6724 80.4788 98.4152 80.0662C99.1671 79.6537 99.9966 79.4473 100.904 79.4473C101.812 79.4473 102.628 79.6629 103.352 80.0938C104.076 80.5155 104.645 81.1114 105.058 81.8813L103.256 83.1053C102.669 82.1153 101.881 81.6201 100.891 81.6201C100.414 81.6201 99.9875 81.7256 99.6116 81.9364C99.2358 82.1473 98.9424 82.4452 98.7315 82.8305C98.5206 83.2155 98.4152 83.66 98.4152 84.1644C98.4152 84.916 98.6444 85.5258 99.1029 85.9934C99.5705 86.4519 100.166 86.6811 100.891 86.6811C101.881 86.6811 102.669 86.1859 103.256 85.1959L105.058 86.4196C104.645 87.1899 104.076 87.7902 103.352 88.2211C102.628 88.6428 101.807 88.8537 100.891 88.8537ZM112.218 88.6887L108.766 84.1644V88.6887H106.4V79.6125H108.766V83.7243L111.764 79.6125H114.514L111.393 83.9304L115.023 88.6887H112.218ZM121.216 87.9323H117.956L117.627 88.6887H115.082L119.208 79.4473H119.964L124.09 88.6887H121.546L121.216 87.9323ZM119.593 83.9304L118.796 86.0346H120.377L119.593 83.9304ZM132.014 79.6125V88.6887H129.648V86.021H128.878L127.035 88.6887H124.533L126.678 85.5809C126.137 85.3057 125.711 84.9299 125.399 84.4531C125.096 83.9671 124.945 83.4172 124.945 82.803C124.945 82.1796 125.101 81.6293 125.413 81.1525C125.733 80.6668 126.178 80.2907 126.747 80.0251C127.315 79.7499 127.966 79.6125 128.699 79.6125H132.014ZM129.648 81.6752H128.603C128.237 81.6752 127.934 81.7806 127.695 81.9915C127.466 82.2024 127.352 82.4775 127.352 82.8166C127.352 83.156 127.466 83.4308 127.695 83.6417C127.934 83.8525 128.237 83.958 128.603 83.958H129.648V81.6752Z" fill="white"/>
</g>
<defs>
<clipPath id="clip0_1_504">
<rect width="136.23" height="92.9918" fill="white" transform="translate(0 0.204102)"/>
</clipPath>
</defs>
</svg>
