<svg width="41" height="42" viewBox="0 0 41 42" fill="none" xmlns="http://www.w3.org/2000/svg">
<path d="M26.486 5.68506C26.158 5.68506 25.8369 5.75339 25.5225 5.89006C25.2082 6.02672 24.9554 6.19073 24.764 6.38206L12.628 18.6821C12.1907 19.1194 11.972 19.7412 11.972 20.5476C11.972 21.3539 12.1907 21.9757 12.628 22.4131L24.764 35.5741C25.0647 35.8747 25.3449 36.0934 25.6045 36.2301C25.8642 36.3667 26.158 36.4351 26.486 36.4351C27.2787 36.4351 27.9074 36.2027 28.372 35.7381C28.618 35.4921 28.823 35.1982 28.987 34.8566C29.151 34.5149 29.233 34.1801 29.233 33.8521C29.233 33.0594 28.946 32.4444 28.372 32.0071L17.958 20.5271L28.372 9.78506C28.8094 9.34772 29.028 8.82839 29.028 8.22706C29.028 7.43439 28.8094 6.81939 28.372 6.38206C28.0167 6.10872 27.7024 5.92422 27.429 5.82856C27.1557 5.73289 26.8414 5.68506 26.486 5.68506Z" fill="#E5004C"/>
</svg>
