<svg width="41" height="42" viewBox="0 0 41 42" fill="none" xmlns="http://www.w3.org/2000/svg">
<g opacity="0.3">
<path d="M28.536 22.4131C29.0007 21.9484 29.233 21.3197 29.233 20.5271C29.233 20.1717 29.1783 19.8437 29.069 19.5431C28.9597 19.2424 28.782 19.0101 28.536 18.8461L16.4 6.54606C16.1267 6.27272 15.8465 6.06089 15.5595 5.91056C15.2725 5.76023 14.924 5.68506 14.514 5.68506C13.8307 5.68506 13.2703 5.91739 12.833 6.38206C12.5597 6.62806 12.3478 6.91506 12.1975 7.24306C12.0472 7.57106 11.972 7.89906 11.972 8.22706C11.972 9.04706 12.1907 9.67572 12.628 10.1131L23.083 20.7321L12.464 32.1711C12.0267 32.6084 11.808 33.2371 11.808 34.0571C11.808 34.7131 12.0813 35.3417 12.628 35.9431C13.1747 36.2711 13.8033 36.4351 14.514 36.4351C14.8693 36.4351 15.211 36.3599 15.539 36.2096C15.867 36.0592 16.154 35.8474 16.4 35.5741L28.536 22.4131Z" fill="#E5004C"/>
</g>
</svg>
