<svg width="26" height="27" viewBox="0 0 26 27" fill="none" xmlns="http://www.w3.org/2000/svg">
<g clip-path="url(#clip0_1_727)">
<path d="M12.9167 26.7598C5.80128 26.7598 0.0115662 20.943 0.0115662 13.7942C0.0115662 6.64545 5.80128 0.828613 12.9167 0.828613C20.0322 0.828613 25.8219 6.64545 25.8219 13.7942C25.8219 20.943 20.0322 26.7598 12.9167 26.7598ZM12.9167 2.67425C6.81473 2.67425 1.8486 7.66363 1.8486 13.7942C1.8486 19.9248 6.81473 24.9142 12.9167 24.9142C19.0188 24.9142 23.9849 19.9248 23.9849 13.7942C23.9849 7.66363 19.0188 2.67425 12.9167 2.67425Z" fill="white"/>
<path d="M18.1428 15.5175C17.8872 15.1932 17.9604 15.0489 18.1428 14.759C18.1461 14.7557 20.2557 11.8263 20.473 10.8329L20.4744 10.8322C20.5824 10.4702 20.4744 10.2041 19.9521 10.2041H18.2238C17.7838 10.2041 17.581 10.4324 17.4723 10.6879C17.4723 10.6879 16.5924 12.8045 15.3475 14.1766C14.9458 14.573 14.76 14.7001 14.5407 14.7001C14.4327 14.7001 14.2648 14.573 14.2648 14.211V10.8322C14.2648 10.398 14.1416 10.2041 13.7774 10.2041H11.0598C10.7839 10.2041 10.6199 10.4066 10.6199 10.5952C10.6199 11.0069 11.2423 11.1016 11.3068 12.2598V14.7729C11.3068 15.3236 11.2074 15.4248 10.9867 15.4248C10.3992 15.4248 8.97326 13.2996 8.12823 10.8673C7.95765 10.3954 7.79104 10.2048 7.34777 10.2048H5.61883C5.12551 10.2048 5.02606 10.4331 5.02606 10.6886C5.02606 11.14 5.61357 13.3843 7.7581 16.3494C9.18733 18.3734 11.2001 19.4701 13.0311 19.4701C14.1317 19.4701 14.2661 19.2265 14.2661 18.8076C14.2661 16.8736 14.1666 16.6909 14.7179 16.6909C14.9734 16.6909 15.4134 16.818 16.4409 17.7943C17.6152 18.9519 17.8082 19.4701 18.4655 19.4701H20.1938C20.6865 19.4701 20.9361 19.2265 20.7925 18.746C20.4638 17.7354 18.2429 15.6565 18.1428 15.5175Z" fill="white"/>
</g>
<defs>
<clipPath id="clip0_1_727">
<rect width="26" height="26" fill="white" transform="translate(0 0.810059)"/>
</clipPath>
</defs>
</svg>
