<svg width="21" height="25" viewBox="0 0 21 25" fill="none" xmlns="http://www.w3.org/2000/svg">
<g clip-path="url(#clip0_1_778)">
<path fill-rule="evenodd" clip-rule="evenodd" d="M19.9881 10.0549C19.9881 12.6543 19.0065 15.0244 17.3946 16.8079C17.3924 16.8089 12.9429 21.7307 10.9446 23.9411C10.3661 24.581 9.99269 24.994 9.99269 24.994L2.59771 16.8134C2.59633 16.8106 2.59494 16.8092 2.59356 16.8079C0.981572 15.0244 0 12.6543 0 10.0549C0 4.50572 4.47514 0.00744629 9.99406 0.00744629C15.513 0.00744629 19.9881 4.50572 19.9881 10.0549ZM9.99415 3.50071C6.39413 3.50071 3.47568 6.43515 3.47568 10.0549C3.47568 13.6746 6.39413 16.6077 9.99415 16.6091C13.5941 16.6091 16.5126 13.6746 16.5126 10.0549C16.5126 6.43515 13.5941 3.50071 9.99415 3.50071Z" fill="#00213E"/>
</g>
<defs>
<clipPath id="clip0_1_778">
<rect width="20.11" height="24.9852" fill="white" transform="translate(0 0.00744629)"/>
</clipPath>
</defs>
</svg>
