<svg width="27" height="27" viewBox="0 0 27 27" fill="none" xmlns="http://www.w3.org/2000/svg">
<g clip-path="url(#clip0_1_717)">
<path d="M12.9352 26.7413C5.81977 26.7413 0.0300293 20.9244 0.0300293 13.7756C0.0300293 6.62688 5.81977 0.810059 12.9352 0.810059C20.0507 0.810059 25.8404 6.62688 25.8404 13.7756C25.8404 20.9244 20.0507 26.7413 12.9352 26.7413ZM12.9352 2.65569C6.83318 2.65569 1.86707 7.64506 1.86707 13.7756C1.86707 19.9063 6.83318 24.8956 12.9352 24.8956C19.0372 24.8956 24.0034 19.9063 24.0034 13.7756C24.0034 7.64506 19.0372 2.65569 12.9352 2.65569Z" fill="white"/>
<path fill-rule="evenodd" clip-rule="evenodd" d="M6.37382 13.6494C9.86726 12.1206 12.1972 11.1116 13.3637 10.6256C16.6919 9.23522 17.3838 8.99222 17.8339 8.98609C17.9318 8.98299 18.1553 9.0076 18.2992 9.12757C18.4217 9.226 18.4554 9.36136 18.4707 9.45362C18.486 9.54592 18.5075 9.76123 18.4921 9.92735C18.3115 11.8314 17.5308 16.4517 17.1327 18.5865C16.9643 19.4877 16.6337 19.7923 16.3122 19.8199C15.6172 19.8845 15.0875 19.3585 14.4139 18.9125C13.3576 18.2173 12.7637 17.7867 11.738 17.1069C10.5531 16.3225 11.3216 15.8918 11.9951 15.1874C12.1727 15.0029 15.2375 12.2006 15.2987 11.9453C15.3049 11.9145 15.3141 11.7945 15.2437 11.733C15.1732 11.6715 15.0691 11.693 14.9956 11.7084C14.8885 11.733 13.2045 12.8527 9.94074 15.0644C9.46311 15.3935 9.02832 15.5565 8.6395 15.5473C8.21084 15.5381 7.38726 15.3043 6.7749 15.1044C6.02477 14.8583 5.42773 14.7291 5.47979 14.3138C5.5104 14.0954 5.80739 13.8739 6.37382 13.6494Z" fill="white"/>
</g>
<defs>
<clipPath id="clip0_1_717">
<rect width="26" height="26" fill="white" transform="translate(0.0300293 0.810059)"/>
</clipPath>
</defs>
</svg>
