<svg width="101" height="68" viewBox="0 0 101 68" fill="none" xmlns="http://www.w3.org/2000/svg">
<g clip-path="url(#clip0_1_752)">
<path d="M18.3792 13.7721H22.0433V23.323C22.3008 23.0913 22.4552 22.954 22.6011 22.8167C25.5788 19.8476 28.565 16.8785 31.5171 13.8837C31.9631 13.4289 32.4094 13.3173 33.0187 13.446V30.4453H29.3802V20.843C29.1143 21.0919 28.9513 21.2464 28.7883 21.4094C25.8448 24.3613 22.9015 27.3045 19.9838 30.2823C19.5205 30.7542 19.0656 30.9604 18.3792 30.7971V13.7807V13.7721Z" fill="#00213E"/>
<path d="M0.291074 13.7715H4.01531C4.01531 14.0204 4.01531 14.2521 4.01531 14.4752C4.04106 16.0027 3.981 17.5472 4.12688 19.0661C4.28993 20.791 5.44839 21.8293 7.19036 21.8808C8.16005 21.9065 9.1383 21.7263 10.108 21.6405C10.5027 21.6062 10.6486 21.4088 10.6486 20.9798C10.6228 18.8173 10.64 16.6548 10.64 14.4924V13.7973H14.3471V30.4447H10.6486V25.2017C9.1812 25.2704 7.7739 25.4248 6.37515 25.3905C3.07995 25.3047 0.565674 22.902 0.351143 19.6239C0.231006 17.7618 0.273912 15.8911 0.248169 14.029C0.248169 13.9517 0.273912 13.8831 0.299656 13.7629" fill="#00213E"/>
<path d="M44.1599 26.5642C44.1599 11.9762 55.9846 0.151245 70.5728 0.151245C85.1607 0.151245 96.9857 11.9762 96.9857 26.5642C96.9857 41.1524 85.1607 52.9771 70.5728 52.9771C55.9846 52.9771 44.1599 41.1524 44.1599 26.5642Z" fill="#E50040"/>
<path d="M70.0894 24.7128L64.1254 23.6659L63.5247 27.1068L66.5024 27.6305L64.1855 29.5182L66.3823 32.2299L71.0591 28.4284L100.201 33.5171L100.802 30.076L74.6373 25.5022L95.7214 8.34841L93.516 5.63678L70.0894 24.7128Z" fill="#00213E"/>
<path d="M44.8877 27.4054C41.9014 27.4054 39.6446 25.1314 39.636 22.1108C39.636 19.0988 41.9014 16.799 44.8706 16.7904C47.8483 16.7904 50.1138 19.1073 50.0794 22.1193C50.0449 25.1571 47.8395 27.3968 44.8877 27.4054ZM44.8621 13.3837C39.8076 13.4094 35.989 17.1336 35.9634 22.0678C35.9289 26.9935 39.8249 30.8465 44.8447 30.855C49.9164 30.855 53.7179 27.122 53.7264 22.1193C53.7264 17.0993 49.942 13.3665 44.8706 13.3837" fill="#00213E"/>
<path d="M23.3918 34.7928H27.056V44.3438C27.3135 44.112 27.4679 43.9749 27.6138 43.8375C30.5916 40.8683 33.5778 37.8994 36.5296 34.9046C36.976 34.4497 37.422 34.3382 38.0313 34.4668V51.4661H34.3931V41.8639C34.1268 42.1128 33.9638 42.2672 33.8008 42.4302C30.8575 45.3821 27.9142 48.3254 24.9965 51.3031C24.5332 51.775 24.0784 51.981 23.3918 51.818V34.8016V34.7928Z" fill="#00213E"/>
<path d="M5.31365 34.7841H9.0379C9.0379 35.033 9.0379 35.2645 9.0379 35.4878C9.06364 37.0151 9.00357 38.5597 9.14944 40.0787C9.31249 41.8034 10.4709 42.8419 12.2129 42.8934C13.1826 42.919 14.1609 42.7389 15.1306 42.653C15.5253 42.6186 15.6712 42.4212 15.6712 41.9922C15.6454 39.8298 15.6626 37.6673 15.6626 35.5049V34.8099H19.3697V51.4573H15.6712V46.2142C14.2038 46.2827 12.7965 46.4375 11.3977 46.4031C8.10254 46.3172 5.58824 43.9143 5.37373 40.6365C5.25357 38.7744 5.2965 36.9036 5.27075 35.0415C5.27075 34.9641 5.2965 34.8956 5.32224 34.7755" fill="#00213E"/>
<path d="M50.1135 48.4324C47.1273 48.4324 44.8704 46.1584 44.8618 43.138C44.8618 40.1259 47.1273 37.826 50.0965 37.8175C53.0742 37.8175 55.3396 40.1344 55.3052 43.1466C55.2708 46.1843 53.0656 48.4239 50.1135 48.4324ZM50.0879 34.4108C45.0337 34.4364 41.2148 38.1608 41.1892 43.0951C41.1548 48.0205 45.0507 51.8735 50.0706 51.882C55.1422 51.882 58.9437 48.1493 58.9522 43.1466C58.9522 38.1264 55.1678 34.3935 50.0965 34.4108" fill="#00213E"/>
<path d="M3.56677 60.6658H9.40391V67.3658H7.65786V62.2392H5.31285V67.3658H3.56677V60.6658Z" fill="#00213E"/>
<path d="M14.6222 66.8074H12.2163L11.9726 67.3657H10.0946L13.1401 60.5441H13.6984L16.7439 67.3657H14.8658L14.6222 66.8074ZM13.4243 63.8534L12.8355 65.4065H14.003L13.4243 63.8534Z" fill="#00213E"/>
<path d="M17.4359 60.6658H20.0652C20.5592 60.6658 21.0025 60.7605 21.395 60.9502C21.7876 61.1396 22.0955 61.4103 22.3188 61.7622C22.5422 62.1074 22.6538 62.51 22.6538 62.9702C22.6538 63.4237 22.5388 63.8262 22.3087 64.1784C22.0853 64.5302 21.7774 64.8042 21.3849 65.0006C20.9923 65.19 20.5525 65.2847 20.0652 65.2847H19.182V67.3658H17.4359V60.6658ZM20.0753 63.7619C20.3189 63.7619 20.5119 63.691 20.654 63.5488C20.8028 63.3999 20.8773 63.207 20.8773 62.9702C20.8773 62.7333 20.8028 62.5439 20.654 62.4017C20.5119 62.2597 20.3189 62.1885 20.0753 62.1885H19.182V63.7619H20.0753Z" fill="#00213E"/>
<path d="M29.5408 60.5441V67.3657H27.7948V63.8838L24.1606 67.4876H23.6023V60.6657H25.3484V64.1071L28.9827 60.5441H29.5408Z" fill="#00213E"/>
<path d="M35.1729 67.3658L32.6249 64.026V67.3658H30.8789V60.6658H32.6249V63.7011L34.8381 60.6658H36.8682L34.5638 63.8534L37.2438 67.3658H35.1729Z" fill="#00213E"/>
<path d="M44.7591 60.5441V67.3657H43.0131V64.5539L41.6224 66.178H41.0641L39.6835 64.5641V67.3657H37.9375V60.5441H38.4959L41.3485 64.026L44.2011 60.5441H44.7591Z" fill="#00213E"/>
<path d="M49.9742 66.8074H47.5682L47.3246 67.3657H45.4465L48.492 60.5441H49.0504L52.0958 67.3657H50.2178L49.9742 66.8074ZM48.7764 63.8534L48.1874 65.4065H49.355L48.7764 63.8534Z" fill="#00213E"/>
<path d="M56.4528 67.3658L55.2753 65.4877L54.1076 67.3658H52.1383L54.3208 63.9649L52.2602 60.6658H54.2295L55.2753 62.4526L56.3208 60.6658H58.2901L56.2599 63.9649L58.4221 67.3658H56.4528Z" fill="#00213E"/>
<path d="M59.1128 60.6658H63.7624V62.2392H60.8591V63.163H62.9298V64.6249H60.8591V65.7923H63.884V67.3658H59.1128V60.6658Z" fill="#00213E"/>
<path d="M64.9719 60.6658H67.6012C68.0953 60.6658 68.5384 60.7605 68.9311 60.9502C69.3235 61.1396 69.6314 61.4103 69.8547 61.7622C70.0782 62.1074 70.1897 62.51 70.1897 62.9702C70.1897 63.4237 70.0747 63.8262 69.8445 64.1784C69.6212 64.5302 69.3134 64.8042 68.921 65.0006C68.5283 65.19 68.0884 65.2847 67.6012 65.2847H66.7179V67.3658H64.9719V60.6658ZM67.6114 63.7619C67.8549 63.7619 68.0478 63.691 68.19 63.5488C68.3389 63.3999 68.4133 63.207 68.4133 62.9702C68.4133 62.7333 68.3389 62.5439 68.19 62.4017C68.0478 62.2597 67.8549 62.1885 67.6114 62.1885H66.7179V63.7619H67.6114Z" fill="#00213E"/>
<path d="M74.4068 67.4876C73.7436 67.4876 73.1346 67.3353 72.5797 67.0309C72.0315 66.7263 71.595 66.3101 71.2701 65.7821C70.9521 65.2542 70.7928 64.6654 70.7928 64.0158C70.7928 63.3729 70.9521 62.7874 71.2701 62.2597C71.595 61.7248 72.0315 61.3052 72.5797 61.0008C73.1346 60.6961 73.7471 60.5441 74.4169 60.5441C75.0871 60.5441 75.6894 60.7031 76.2241 61.0211C76.7587 61.3324 77.1783 61.7723 77.4827 62.3408L76.1531 63.2443C75.7199 62.5134 75.1378 62.1479 74.4068 62.1479C74.0549 62.1479 73.7404 62.2258 73.4627 62.3813C73.1853 62.5371 72.9686 62.7569 72.8131 63.0413C72.6576 63.3254 72.5797 63.6536 72.5797 64.026C72.5797 64.5809 72.7488 65.0309 73.0871 65.3761C73.4323 65.7144 73.8722 65.8838 74.4068 65.8838C75.1378 65.8838 75.7199 65.5183 76.1531 64.7873L77.4827 65.6909C77.1783 66.2591 76.7587 66.7025 76.2241 67.0205C75.6894 67.3318 75.0836 67.4876 74.4068 67.4876Z" fill="#00213E"/>
<path d="M82.7683 67.3658L80.2204 64.026V67.3658H78.4744V60.6658H80.2204V63.7011L82.4333 60.6658H84.4637L82.1593 63.8534L84.8393 67.3658H82.7683Z" fill="#00213E"/>
<path d="M89.4107 66.8074H87.0047L86.7611 67.3657H84.8831L87.9285 60.5441H88.4869L91.5324 67.3657H89.6543L89.4107 66.8074ZM88.2129 63.8534L87.6241 65.4065H88.7915L88.2129 63.8534Z" fill="#00213E"/>
<path d="M97.3816 60.6658V67.3658H95.6353V65.3964H95.0668L93.7065 67.3658H91.8591L93.4427 65.0715C93.0433 64.8685 92.7285 64.5911 92.4986 64.2392C92.2753 63.8804 92.1635 63.4744 92.1635 63.0208C92.1635 62.5607 92.2785 62.1546 92.5087 61.8028C92.7456 61.4442 93.0737 61.1665 93.4934 60.9704C93.913 60.7674 94.3935 60.6658 94.935 60.6658H97.3816ZM95.6353 62.1885H94.8638C94.5933 62.1885 94.3697 62.2664 94.1939 62.4219C94.0248 62.5777 93.94 62.7807 93.94 63.0312C93.94 63.2815 94.0248 63.4845 94.1939 63.6403C94.3697 63.7958 94.5933 63.8737 94.8638 63.8737H95.6353V62.1885Z" fill="#00213E"/>
</g>
<defs>
<clipPath id="clip0_1_752">
<rect width="100.84" height="67.4934" fill="white" transform="translate(0 0.0032959)"/>
</clipPath>
</defs>
</svg>
